<svg width="2022" height="600" viewBox="0 0 2022 600" fill="none" xmlns="http://www.w3.org/2000/svg">
<path fill-rule="evenodd" clip-rule="evenodd" d="M912.727 57H969.886V106.157H983.033V57H1040.19V106.157H1053.34V57H1110.5L1110.5 106.157L1110.5 114.16L1110.5 170.748H1095.67L1109.89 451.973H1136.22V489.698H1152.23V544H871V489.698H887.005V451.973H913.311L927.004 170.748H912.727V114.16V106.157V57Z" fill="url(#paint0_linear_2_29)"/>
<path d="M144.25 322.25C144.417 344.083 138.167 361.167 125.5 373.5C112.833 385.667 95.4167 391.75 73.25 391.75C60.0833 391.75 47.9167 388.75 36.75 382.75C25.75 376.75 17 368.25 10.5 357.25C4 346.25 0.750001 333.583 0.750001 319.25V282.75C0.750001 268.583 3.83333 256 10 245C16.3333 234 24.9167 225.5 35.75 219.5C46.75 213.333 59 210.25 72.5 210.25C94.6667 210.25 112 216.333 124.5 228.5C137.167 240.5 143.583 257.5 143.75 279.5H98.75C98.5833 271 96.25 264.417 91.75 259.75C87.4167 255.083 81 252.75 72.5 252.75C64.8333 252.75 58.5 255.167 53.5 260C48.5 264.833 46 271.667 46 280.5V321.25C46 330.083 48.5833 337 53.75 342C59.0833 346.833 65.5833 349.25 73.25 349.25C90.75 349.25 99.5 340.25 99.5 322.25H144.25ZM358.309 305.75C358.475 306.417 358.059 307.25 357.059 308.25C356.059 309.25 354.975 310 353.809 310.5C352.809 310.667 350.142 311.5 345.809 313C341.475 314.333 337.309 315.333 333.309 316L314.559 319.25C312.725 326.75 309.892 337.917 306.059 352.75C304.059 360.917 301.809 367.75 299.309 373.25C296.809 378.75 293.642 382.75 289.809 385.25C287.309 387.083 285.559 388 284.559 388C282.559 388 281.559 385.75 281.559 381.25C281.559 380.417 281.725 378.083 282.059 374.25L283.059 365L291.559 323L271.059 326.5L259.059 328.5L258.559 332.25C253.059 351.583 248.892 366 246.059 375.5C244.725 379.833 243.475 382.833 242.309 384.5C241.309 386.167 239.892 387 238.059 387C236.725 387 235.142 386.583 233.309 385.75C231.475 384.917 228.892 383.5 225.559 381.5C225.725 380.167 225.975 377.75 226.309 374.25C226.809 367.917 227.642 362.583 228.809 358.25C230.309 352.583 232.725 344 236.059 332.5C233.725 332.833 232.142 333.167 231.309 333.5C228.975 334 226.809 334.25 224.809 334.25C219.142 334.25 213.059 332.583 206.559 329.25C202.725 326.917 200.809 324.667 200.809 322.5C200.809 320.167 202.809 318 206.809 316C209.642 314.833 212.392 314.083 215.059 313.75L242.809 308.5V308.25C244.475 303.083 245.892 297.417 247.059 291.25L248.059 285.75C247.225 285.917 246.225 286.083 245.059 286.25C243.892 286.25 242.725 286.333 241.559 286.5L234.809 287.5C230.475 288 227.392 288.25 225.559 288.25C219.725 288.25 214.392 287.25 209.559 285.25C207.892 284.417 206.309 283.333 204.809 282C203.475 280.5 202.725 279.083 202.559 277.75C202.392 276.917 203.225 276 205.059 275C207.059 274 209.059 273.25 211.059 272.75C220.392 270.583 228.642 269.083 235.809 268.25L252.309 266.75C253.142 263.25 256.642 248.833 262.809 223.5L266.809 206.75L274.059 206.5C275.892 206.5 277.225 206.667 278.059 207C282.059 207.833 284.975 209 286.809 210.5C288.642 212 289.559 214 289.559 216.5C289.559 218.167 289.142 220.25 288.309 222.75C286.975 227.75 285.309 233.5 283.309 240C281.475 246.333 280.142 251.083 279.309 254.25L275.809 264.75L303.309 262.75L305.309 252.5C305.809 250.167 306.392 246.75 307.059 242.25C307.892 237.75 308.559 233.833 309.059 230.5C309.725 226.333 310.642 223.25 311.809 221.25C313.142 219.25 314.725 218.5 316.559 219C321.892 220.667 326.392 223.25 330.059 226.75C331.725 228.417 332.559 231.5 332.559 236C332.559 238.667 332.225 241.75 331.559 245.25L328.309 260.75L335.059 260C336.392 259.833 338.475 259.75 341.309 259.75C344.475 259.75 346.559 259.917 347.559 260.25C349.225 260.583 350.642 261.167 351.809 262C353.142 262.667 354.059 263.417 354.559 264.25C354.559 264.75 353.975 265.5 352.809 266.5C351.642 267.333 350.559 267.833 349.559 268L344.059 269.75C342.059 270.25 339.142 271.083 335.309 272.25C331.475 273.25 327.975 274.083 324.809 274.75C322.309 286.083 320.392 294.667 319.059 300.5C330.059 299.667 338.225 299.083 343.559 298.75C347.892 298.75 351.225 299.25 353.559 300.25C354.725 300.75 355.725 301.5 356.559 302.5C357.392 303.5 357.975 304.583 358.309 305.75ZM299.809 280.75C300.142 280.083 300.309 279.417 300.309 278.75L271.059 282.5C269.892 287.5 268.392 293.5 266.559 300.5L265.309 305L287.309 302.25L296.059 302L299.809 280.75ZM410.449 214H532.949V223.25H419.699V293.75H518.199V303H419.699V378.75H532.949V388H410.449V214ZM659.258 304.75C645.091 301.917 633.508 298.833 624.508 295.5C615.674 292 608.674 287.333 603.508 281.5C598.508 275.5 596.008 267.833 596.008 258.5C596.008 248.833 598.508 240.333 603.508 233C608.674 225.667 615.841 220 625.008 216C634.341 212 645.091 210 657.258 210C668.924 210 679.591 212.5 689.258 217.5C699.091 222.333 706.841 229.167 712.508 238C718.174 246.833 721.008 256.917 721.008 268.25H711.758C711.758 258.417 709.341 249.75 704.508 242.25C699.674 234.75 693.091 229 684.758 225C676.424 220.833 667.174 218.75 657.008 218.75C648.008 218.75 639.591 220.167 631.758 223C623.924 225.833 617.508 230.167 612.508 236C607.674 241.833 605.258 249.167 605.258 258C605.258 266 607.591 272.417 612.258 277.25C616.924 281.917 623.008 285.5 630.508 288C638.008 290.5 648.508 293.167 662.008 296C675.674 298.833 686.258 301.583 693.758 304.25C701.424 306.75 707.841 311 713.008 317C718.341 323 721.008 331.417 721.008 342.25C721.008 353.083 718.091 362.25 712.258 369.75C706.591 377.083 699.008 382.583 689.508 386.25C680.008 389.917 669.674 391.75 658.508 391.75C644.674 391.75 632.508 389.167 622.008 384C611.508 378.833 603.424 371.583 597.758 362.25C592.258 352.75 589.508 341.917 589.508 329.75H598.758C598.758 340.417 601.091 349.75 605.758 357.75C610.591 365.75 617.508 372 626.508 376.5C635.508 380.833 646.174 383 658.508 383C673.841 383 686.508 379.333 696.508 372C706.674 364.667 711.758 354.667 711.758 342C711.758 333.333 709.591 326.667 705.258 322C700.924 317.333 695.424 314 688.758 312C682.258 309.833 672.424 307.417 659.258 304.75ZM844.316 304.75C830.15 301.917 818.566 298.833 809.566 295.5C800.733 292 793.733 287.333 788.566 281.5C783.566 275.5 781.066 267.833 781.066 258.5C781.066 248.833 783.566 240.333 788.566 233C793.733 225.667 800.9 220 810.066 216C819.4 212 830.15 210 842.316 210C853.983 210 864.65 212.5 874.316 217.5C884.15 222.333 891.9 229.167 897.566 238C903.233 246.833 906.066 256.917 906.066 268.25H896.816C896.816 258.417 894.4 249.75 889.566 242.25C884.733 234.75 878.15 229 869.816 225C861.483 220.833 852.233 218.75 842.066 218.75C833.066 218.75 824.65 220.167 816.816 223C808.983 225.833 802.566 230.167 797.566 236C792.733 241.833 790.316 249.167 790.316 258C790.316 266 792.65 272.417 797.316 277.25C801.983 281.917 808.066 285.5 815.566 288C823.066 290.5 833.566 293.167 847.066 296C860.733 298.833 871.316 301.583 878.816 304.25C886.483 306.75 892.9 311 898.066 317C903.4 323 906.066 331.417 906.066 342.25C906.066 353.083 903.15 362.25 897.316 369.75C891.65 377.083 884.066 382.583 874.566 386.25C865.066 389.917 854.733 391.75 843.566 391.75C829.733 391.75 817.566 389.167 807.066 384C796.566 378.833 788.483 371.583 782.816 362.25C777.316 352.75 774.566 341.917 774.566 329.75H783.816C783.816 340.417 786.15 349.75 790.816 357.75C795.65 365.75 802.566 372 811.566 376.5C820.566 380.833 831.233 383 843.566 383C858.9 383 871.566 379.333 881.566 372C891.733 364.667 896.816 354.667 896.816 342C896.816 333.333 894.65 326.667 890.316 322C885.983 317.333 880.483 314 873.816 312C867.316 309.833 857.483 307.417 844.316 304.75ZM957.625 388V214H967.375L1088.88 332V214H1098.13V388H1088.88V345L966.875 226V388H957.625ZM1210.68 210.25C1223.68 210.25 1235.68 213.5 1246.68 220C1257.68 226.333 1266.35 235 1272.68 246C1279.18 257 1282.43 269 1282.43 282V320C1282.43 333 1279.18 345 1272.68 356C1266.35 367 1257.68 375.75 1246.68 382.25C1235.68 388.583 1223.68 391.75 1210.68 391.75C1197.68 391.75 1185.68 388.583 1174.68 382.25C1163.68 375.75 1154.93 367 1148.43 356C1142.1 345 1138.93 333 1138.93 320V282C1138.93 269 1142.1 257 1148.43 246C1154.93 235 1163.68 226.333 1174.68 220C1185.68 213.5 1197.68 210.25 1210.68 210.25ZM1148.18 320C1148.18 331.333 1150.93 341.833 1156.43 351.5C1162.1 361 1169.68 368.583 1179.18 374.25C1188.85 379.75 1199.35 382.5 1210.68 382.5C1222.02 382.5 1232.43 379.75 1241.93 374.25C1251.6 368.583 1259.18 361 1264.68 351.5C1270.35 341.833 1273.18 331.333 1273.18 320V282C1273.18 270.667 1270.35 260.25 1264.68 250.75C1259.18 241.083 1251.6 233.5 1241.93 228C1232.43 222.333 1222.02 219.5 1210.68 219.5C1199.35 219.5 1188.85 222.333 1179.18 228C1169.68 233.5 1162.1 241.083 1156.43 250.75C1150.93 260.25 1148.18 270.667 1148.18 282V320ZM1328.99 214L1395.49 375.75L1461.99 214H1471.74L1400.24 388H1390.49L1318.99 214H1328.99ZM1520.8 214H1643.3V223.25H1530.05V293.75H1628.55V303H1530.05V378.75H1643.3V388H1520.8V214ZM1803.61 219.75C1813.61 224.417 1821.44 231.333 1827.11 240.5C1832.94 249.667 1835.86 259.833 1835.86 271C1835.86 284 1831.86 295.667 1823.86 306C1816.03 316.167 1805.94 322.917 1793.61 326.25L1837.86 388H1826.86L1784.11 328L1776.11 328.25H1713.36V388H1704.11V214H1770.36C1777.69 214 1783.94 214.5 1789.11 215.5C1794.44 216.333 1799.28 217.75 1803.61 219.75ZM1778.61 319C1787.28 319 1795.28 316.833 1802.61 312.5C1809.94 308.167 1815.78 302.333 1820.11 295C1824.44 287.667 1826.61 279.667 1826.61 271C1826.61 261.333 1824.03 252.583 1818.86 244.75C1813.86 236.917 1806.86 231.083 1797.86 227.25C1791.36 224.583 1782.19 223.25 1770.36 223.25H1713.36V319H1778.61ZM2021.17 214V223.25H1955.42V388H1946.42V223.25H1880.67V214H2021.17Z" fill="black"/>
<path d="M144.25 322.25L147.25 322.227L147.227 319.25H144.25V322.25ZM125.5 373.5L127.578 375.664L127.586 375.657L127.593 375.649L125.5 373.5ZM36.75 382.75L35.3134 385.384L35.3217 385.388L35.3301 385.393L36.75 382.75ZM10.5 357.25L7.91722 358.776L7.91722 358.776L10.5 357.25ZM10 245L7.40013 243.503L7.39156 243.518L7.38316 243.533L10 245ZM35.75 219.5L37.2035 222.124L37.2103 222.121L37.217 222.117L35.75 219.5ZM124.5 228.5L122.408 230.65L122.422 230.664L122.437 230.678L124.5 228.5ZM143.75 279.5V282.5H146.773L146.75 279.477L143.75 279.5ZM98.75 279.5L95.7506 279.559L95.8083 282.5H98.75V279.5ZM91.75 259.75L89.5516 261.791L89.5709 261.812L89.5905 261.832L91.75 259.75ZM53.5 260L51.4149 257.843L51.4149 257.843L53.5 260ZM53.75 342L51.6637 344.156L51.699 344.19L51.7354 344.223L53.75 342ZM99.5 322.25V319.25H96.5V322.25H99.5ZM141.25 322.273C141.412 343.494 135.356 359.716 123.407 371.351L127.593 375.649C140.977 362.617 147.421 344.673 147.25 322.227L141.25 322.273ZM123.422 371.336C111.45 382.835 94.8544 388.75 73.25 388.75V394.75C95.9789 394.75 114.216 388.498 127.578 375.664L123.422 371.336ZM73.25 388.75C60.559 388.75 48.8829 385.864 38.17 380.107L35.3301 385.393C46.9504 391.636 59.6076 394.75 73.25 394.75V388.75ZM38.1866 380.116C27.6713 374.381 19.3133 366.268 13.0828 355.724L7.91722 358.776C14.6867 370.232 23.8288 379.119 35.3134 385.384L38.1866 380.116ZM13.0828 355.724C6.88807 345.24 3.75 333.113 3.75 319.25H-2.25C-2.25 334.053 1.11193 347.26 7.91722 358.776L13.0828 355.724ZM3.75 319.25V282.75H-2.25V319.25H3.75ZM3.75 282.75C3.75 269.033 6.73119 256.966 12.6168 246.467L7.38316 243.533C0.935479 255.034 -2.25 268.134 -2.25 282.75H3.75ZM12.5999 246.497C18.6679 235.958 26.8601 227.853 37.2035 222.124L34.2965 216.876C22.9732 223.147 13.9987 232.042 7.40013 243.503L12.5999 246.497ZM37.217 222.117C47.7374 216.219 59.4763 213.25 72.5 213.25V207.25C58.5237 207.25 45.7626 210.448 34.283 216.883L37.217 222.117ZM72.5 213.25C94.1064 213.25 110.608 219.165 122.408 230.65L126.592 226.35C113.392 213.501 95.2269 207.25 72.5 207.25V213.25ZM122.437 230.678C134.365 241.979 140.588 258.113 140.75 279.523L146.75 279.477C146.579 256.887 139.968 239.021 126.563 226.322L122.437 230.678ZM143.75 276.5H98.75V282.5H143.75V276.5ZM101.749 279.441C101.573 270.427 99.0814 263.031 93.9095 257.668L89.5905 261.832C93.4186 265.802 95.594 271.573 95.7506 279.559L101.749 279.441ZM93.9484 257.709C88.8754 252.245 81.5424 249.75 72.5 249.75V255.75C80.4576 255.75 85.9579 257.921 89.5516 261.791L93.9484 257.709ZM72.5 249.75C64.1423 249.75 57.034 252.411 51.4149 257.843L55.5851 262.157C59.966 257.922 65.5243 255.75 72.5 255.75V249.75ZM51.4149 257.843C45.682 263.385 43 271.086 43 280.5H49C49 272.248 51.318 266.282 55.5851 262.157L51.4149 257.843ZM43 280.5V321.25H49V280.5H43ZM43 321.25C43 330.698 45.7844 338.466 51.6637 344.156L55.8363 339.844C51.3823 335.534 49 329.469 49 321.25H43ZM51.7354 344.223C57.6586 349.591 64.8917 352.25 73.25 352.25V346.25C66.275 346.25 60.508 344.076 55.7646 339.777L51.7354 344.223ZM73.25 352.25C82.4842 352.25 89.9559 349.87 95.0885 344.591C100.206 339.328 102.5 331.692 102.5 322.25H96.5C96.5 330.808 94.4192 336.672 90.7865 340.409C87.1691 344.13 81.5158 346.25 73.25 346.25V352.25ZM99.5 325.25H144.25V319.25H99.5V325.25ZM358.309 305.75L361.219 305.022L361.207 304.974L361.193 304.926L358.309 305.75ZM357.059 308.25L354.937 306.129L354.937 306.129L357.059 308.25ZM353.809 310.5L354.302 313.459L354.658 313.4L354.99 313.257L353.809 310.5ZM345.809 313L346.691 315.867L346.741 315.852L346.79 315.835L345.809 313ZM333.309 316L332.815 313.041L332.806 313.042L332.796 313.044L333.309 316ZM314.559 319.25L314.046 316.294L312.111 316.63L311.644 318.538L314.559 319.25ZM306.059 352.75L303.154 351.999L303.149 352.018L303.145 352.036L306.059 352.75ZM299.309 373.25L296.577 372.009L296.577 372.009L299.309 373.25ZM289.809 385.25L288.17 382.737L288.101 382.782L288.035 382.831L289.809 385.25ZM282.059 374.25L279.076 373.928L279.073 373.959L279.07 373.99L282.059 374.25ZM283.059 365L280.118 364.405L280.091 364.54L280.076 364.678L283.059 365ZM291.559 323L294.499 323.595L295.367 319.306L291.054 320.043L291.559 323ZM271.059 326.5L271.552 329.459L271.563 329.457L271.059 326.5ZM259.059 328.5L258.565 325.541L256.378 325.905L256.085 328.104L259.059 328.5ZM258.559 332.25L261.444 333.071L261.504 332.862L261.532 332.646L258.559 332.25ZM246.059 375.5L248.926 376.382L248.93 376.37L248.933 376.357L246.059 375.5ZM242.309 384.5L239.851 382.78L239.79 382.866L239.736 382.957L242.309 384.5ZM233.309 385.75L232.067 388.481L232.067 388.481L233.309 385.75ZM225.559 381.5L222.582 381.128L222.339 383.067L224.015 384.072L225.559 381.5ZM226.309 374.25L229.295 374.534L229.297 374.51L229.299 374.486L226.309 374.25ZM228.809 358.25L231.705 359.03L231.709 359.018L228.809 358.25ZM236.059 332.5L238.94 333.335L240.233 328.873L235.634 329.53L236.059 332.5ZM231.309 333.5L231.937 336.433L232.186 336.38L232.423 336.285L231.309 333.5ZM206.559 329.25L204.999 331.813L205.092 331.87L205.19 331.919L206.559 329.25ZM206.809 316L205.666 313.226L205.565 313.268L205.467 313.317L206.809 316ZM215.059 313.75L215.431 316.727L215.524 316.715L215.616 316.698L215.059 313.75ZM242.809 308.5L243.366 311.448L245.809 310.986V308.5H242.809ZM242.809 308.25L239.953 307.329L239.809 307.778V308.25H242.809ZM247.059 291.25L250.006 291.808L250.008 291.797L250.01 291.787L247.059 291.25ZM248.059 285.75L251.01 286.287L251.8 281.942L247.47 282.808L248.059 285.75ZM245.059 286.25V289.25H245.272L245.483 289.22L245.059 286.25ZM241.559 286.5L241.134 283.53L241.127 283.531L241.119 283.532L241.559 286.5ZM234.809 287.5L235.152 290.48L235.2 290.475L235.248 290.468L234.809 287.5ZM209.559 285.25L208.217 287.933L208.313 287.981L208.412 288.022L209.559 285.25ZM204.809 282L202.566 283.993L202.684 284.125L202.816 284.242L204.809 282ZM202.559 277.75L205.535 277.378L205.522 277.269L205.5 277.162L202.559 277.75ZM205.059 275L203.717 272.317L203.669 272.341L203.622 272.366L205.059 275ZM211.059 272.75L210.38 269.828L210.356 269.833L210.331 269.84L211.059 272.75ZM235.809 268.25L235.537 265.262L235.499 265.266L235.462 265.27L235.809 268.25ZM252.309 266.75L252.58 269.738L254.728 269.542L255.227 267.445L252.309 266.75ZM262.809 223.5L265.724 224.21L265.727 224.197L262.809 223.5ZM266.809 206.75L266.705 203.752L264.421 203.831L263.891 206.053L266.809 206.75ZM274.059 206.5V203.5H274.007L273.955 203.502L274.059 206.5ZM278.059 207L276.944 209.785L277.189 209.883L277.447 209.937L278.059 207ZM288.309 222.75L285.463 221.801L285.434 221.888L285.41 221.977L288.309 222.75ZM283.309 240L280.441 239.118L280.434 239.142L280.427 239.166L283.309 240ZM279.309 254.25L282.155 255.199L282.185 255.107L282.21 255.013L279.309 254.25ZM275.809 264.75L272.963 263.801L271.54 268.068L276.026 267.742L275.809 264.75ZM303.309 262.75L303.526 265.742L305.814 265.576L306.253 263.325L303.309 262.75ZM305.309 252.5L302.375 251.871L302.369 251.898L302.364 251.925L305.309 252.5ZM307.059 242.25L304.109 241.704L304.099 241.757L304.091 241.81L307.059 242.25ZM309.059 230.5L306.096 230.026L306.094 230.04L306.092 230.055L309.059 230.5ZM311.809 221.25L309.312 219.586L309.263 219.661L309.217 219.738L311.809 221.25ZM316.559 219L317.453 216.137L317.401 216.12L317.348 216.106L316.559 219ZM330.059 226.75L332.18 224.629L332.155 224.604L332.13 224.58L330.059 226.75ZM331.559 245.25L334.495 245.866L334.5 245.839L334.506 245.811L331.559 245.25ZM328.309 260.75L325.372 260.134L324.522 264.189L328.64 263.732L328.309 260.75ZM335.059 260L335.39 262.982L335.41 262.979L335.431 262.977L335.059 260ZM347.559 260.25L346.61 263.096L346.787 263.155L346.97 263.192L347.559 260.25ZM351.809 262L350.065 264.441L350.256 264.578L350.467 264.683L351.809 262ZM354.559 264.25H357.559V263.419L357.131 262.707L354.559 264.25ZM352.809 266.5L354.552 268.941L354.66 268.864L354.761 268.778L352.809 266.5ZM349.559 268L349.065 265.041L348.854 265.076L348.649 265.141L349.559 268ZM344.059 269.75L344.786 272.66L344.878 272.637L344.968 272.609L344.059 269.75ZM335.309 272.25L336.066 275.153L336.124 275.138L336.182 275.12L335.309 272.25ZM324.809 274.75L324.191 271.814L322.296 272.213L321.879 274.104L324.809 274.75ZM319.059 300.5L316.134 299.832L315.227 303.799L319.285 303.491L319.059 300.5ZM343.559 298.75V295.75H343.465L343.371 295.756L343.559 298.75ZM353.559 300.25L352.377 303.007L352.377 303.007L353.559 300.25ZM356.559 302.5L354.254 304.421L354.254 304.421L356.559 302.5ZM299.809 280.75L297.125 279.408L296.93 279.799L296.854 280.229L299.809 280.75ZM300.309 278.75H303.309V275.341L299.927 275.774L300.309 278.75ZM271.059 282.5L270.677 279.524L268.611 279.789L268.137 281.818L271.059 282.5ZM266.559 300.5L269.449 301.303L269.455 301.282L269.461 301.26L266.559 300.5ZM265.309 305L262.418 304.197L261.213 308.535L265.681 307.977L265.309 305ZM287.309 302.25L287.223 299.251L287.079 299.255L286.936 299.273L287.309 302.25ZM296.059 302L296.144 304.999L298.588 304.929L299.013 302.521L296.059 302ZM355.398 306.478C355.33 306.204 355.336 305.963 355.365 305.788C355.393 305.623 355.437 305.535 355.438 305.533C355.439 305.532 355.411 305.586 355.325 305.697C355.241 305.806 355.116 305.95 354.937 306.129L359.18 310.371C359.803 309.749 360.398 309.03 360.804 308.217C361.219 307.388 361.529 306.264 361.219 305.022L355.398 306.478ZM354.937 306.129C354.176 306.89 353.405 307.409 352.627 307.743L354.99 313.257C356.546 312.591 357.941 311.61 359.18 310.371L354.937 306.129ZM353.315 307.541C352.005 307.759 349.051 308.703 344.827 310.165L346.79 315.835C351.233 314.297 353.612 313.574 354.302 313.459L353.315 307.541ZM344.926 310.133C340.706 311.431 336.67 312.398 332.815 313.041L333.802 318.959C337.948 318.268 342.245 317.235 346.691 315.867L344.926 310.133ZM332.796 313.044L314.046 316.294L315.071 322.206L333.821 318.956L332.796 313.044ZM311.644 318.538C309.816 326.018 306.987 337.169 303.154 351.999L308.963 353.501C312.797 338.664 315.635 327.482 317.473 319.962L311.644 318.538ZM303.145 352.036C301.173 360.086 298.977 366.73 296.577 372.009L302.04 374.491C304.64 368.77 306.944 361.747 308.972 353.464L303.145 352.036ZM296.577 372.009C294.239 377.152 291.395 380.634 288.17 382.737L291.447 387.763C295.889 384.866 299.378 380.348 302.04 374.491L296.577 372.009ZM288.035 382.831C286.846 383.702 285.918 384.294 285.229 384.655C284.442 385.067 284.297 385 284.559 385V391C285.82 391 287.05 390.474 288.013 389.97C289.074 389.414 290.271 388.631 291.583 387.669L288.035 382.831ZM284.559 385C284.662 385 284.866 385.043 285.046 385.178C285.189 385.285 285.155 385.331 285.05 385.094C284.808 384.55 284.559 383.371 284.559 381.25H278.559C278.559 383.629 278.809 385.825 279.567 387.531C279.962 388.419 280.553 389.308 281.446 389.978C282.376 390.676 283.456 391 284.559 391V385ZM284.559 381.25C284.559 380.579 284.709 378.404 285.047 374.51L279.07 373.99C278.742 377.763 278.559 380.254 278.559 381.25H284.559ZM285.041 374.572L286.041 365.322L280.076 364.678L279.076 373.928L285.041 374.572ZM285.999 365.595L294.499 323.595L288.618 322.405L280.118 364.405L285.999 365.595ZM291.054 320.043L270.554 323.543L271.563 329.457L292.063 325.957L291.054 320.043ZM270.565 323.541L258.565 325.541L259.552 331.459L271.552 329.459L270.565 323.541ZM256.085 328.104L255.585 331.854L261.532 332.646L262.032 328.896L256.085 328.104ZM255.673 331.429C250.174 350.76 246.011 365.162 243.184 374.643L248.933 376.357C251.772 366.838 255.943 352.407 261.444 333.071L255.673 331.429ZM243.191 374.618C241.865 378.927 240.726 381.53 239.851 382.78L244.766 386.22C246.225 384.137 247.585 380.739 248.926 376.382L243.191 374.618ZM239.736 382.957C239.239 383.786 238.763 384 238.059 384V390C241.021 390 243.379 388.548 244.881 386.043L239.736 382.957ZM238.059 384C237.315 384 236.174 383.757 234.55 383.019L232.067 388.481C234.11 389.41 236.135 390 238.059 390V384ZM234.55 383.019C232.876 382.258 230.41 380.912 227.102 378.928L224.015 384.072C227.374 386.088 230.075 387.575 232.067 388.481L234.55 383.019ZM228.535 381.872C228.708 380.489 228.962 378.032 229.295 374.534L223.322 373.966C222.989 377.468 222.742 379.844 222.582 381.128L228.535 381.872ZM229.299 374.486C229.79 368.267 230.602 363.129 231.705 359.03L225.912 357.47C224.682 362.038 223.827 367.566 223.318 374.014L229.299 374.486ZM231.709 359.018C233.199 353.386 235.608 344.831 238.94 333.335L233.177 331.665C229.843 343.169 227.418 351.78 225.908 357.482L231.709 359.018ZM235.634 329.53C233.327 329.86 231.405 330.23 230.194 330.715L232.423 336.285C232.878 336.103 234.124 335.807 236.483 335.47L235.634 329.53ZM230.68 330.567C228.515 331.031 226.561 331.25 224.809 331.25V337.25C227.056 337.25 229.436 336.969 231.937 336.433L230.68 330.567ZM224.809 331.25C219.736 331.25 214.123 329.757 207.928 326.581L205.19 331.919C211.995 335.409 218.548 337.25 224.809 337.25V331.25ZM208.118 326.687C206.348 325.61 205.203 324.658 204.53 323.867C203.865 323.087 203.809 322.648 203.809 322.5H197.809C197.809 324.519 198.71 326.288 199.962 327.758C201.205 329.217 202.936 330.557 204.999 331.813L208.118 326.687ZM203.809 322.5C203.809 322.06 204.24 320.638 208.15 318.683L205.467 313.317C201.377 315.361 197.809 318.273 197.809 322.5H203.809ZM207.951 318.774C210.571 317.695 213.063 317.023 215.431 316.727L214.686 310.773C211.721 311.144 208.712 311.972 205.666 313.226L207.951 318.774ZM215.616 316.698L243.366 311.448L242.251 305.552L214.501 310.802L215.616 316.698ZM245.809 308.5V308.25H239.809V308.5H245.809ZM245.664 309.171C247.374 303.869 248.82 298.079 250.006 291.808L244.111 290.692C242.964 296.755 241.576 302.298 239.953 307.329L245.664 309.171ZM250.01 291.787L251.01 286.287L245.107 285.213L244.107 290.713L250.01 291.787ZM247.47 282.808C246.708 282.961 245.765 283.119 244.634 283.28L245.483 289.22C246.685 289.048 247.743 288.873 248.647 288.692L247.47 282.808ZM245.059 283.25C243.749 283.25 242.44 283.344 241.134 283.53L241.983 289.47C243.01 289.323 244.035 289.25 245.059 289.25V283.25ZM241.119 283.532L234.369 284.532L235.248 290.468L241.998 289.468L241.119 283.532ZM234.465 284.52C230.133 285.02 227.202 285.25 225.559 285.25V291.25C227.582 291.25 230.817 290.98 235.152 290.48L234.465 284.52ZM225.559 285.25C220.074 285.25 215.136 284.311 210.706 282.478L208.412 288.022C213.648 290.189 219.377 291.25 225.559 291.25V285.25ZM210.9 282.567C209.487 281.86 208.12 280.93 206.802 279.758L202.816 284.242C204.497 285.737 206.297 286.973 208.217 287.933L210.9 282.567ZM207.051 280.007C205.933 278.749 205.598 277.879 205.535 277.378L199.582 278.122C199.852 280.287 201.017 282.251 202.566 283.993L207.051 280.007ZM205.5 277.162C205.581 277.563 205.521 277.924 205.425 278.177C205.339 278.402 205.245 278.492 205.278 278.456C205.308 278.422 205.408 278.324 205.622 278.17C205.832 278.019 206.118 277.839 206.495 277.634L203.622 272.366C202.584 272.932 201.583 273.601 200.839 274.419C200.09 275.243 199.272 276.614 199.617 278.338L205.5 277.162ZM206.4 277.683C208.221 276.773 210.016 276.103 211.786 275.66L210.331 269.84C208.102 270.397 205.896 271.227 203.717 272.317L206.4 277.683ZM211.737 275.672C220.994 273.523 229.129 272.047 236.155 271.23L235.462 265.27C228.155 266.12 219.79 267.643 210.38 269.828L211.737 275.672ZM236.08 271.238L252.58 269.738L252.037 263.762L235.537 265.262L236.08 271.238ZM255.227 267.445C256.058 263.954 259.556 249.548 265.723 224.21L259.894 222.79C253.728 248.118 250.226 262.546 249.39 266.055L255.227 267.445ZM265.727 224.197L269.727 207.447L263.891 206.053L259.891 222.803L265.727 224.197ZM266.912 209.748L274.162 209.498L273.955 203.502L266.705 203.752L266.912 209.748ZM274.059 209.5C275.824 209.5 276.672 209.676 276.944 209.785L279.173 204.215C277.779 203.657 275.959 203.5 274.059 203.5V209.5ZM277.447 209.937C281.271 210.734 283.629 211.775 284.909 212.822L288.708 208.178C286.322 206.225 282.846 204.933 278.67 204.063L277.447 209.937ZM284.909 212.822C286.003 213.717 286.559 214.843 286.559 216.5H292.559C292.559 213.157 291.281 210.283 288.708 208.178L284.909 212.822ZM286.559 216.5C286.559 217.713 286.246 219.451 285.463 221.801L291.155 223.699C292.038 221.049 292.559 218.62 292.559 216.5H286.559ZM285.41 221.977C284.089 226.931 282.433 232.643 280.441 239.118L286.176 240.882C288.184 234.357 289.862 228.569 291.207 223.523L285.41 221.977ZM280.427 239.166C278.592 245.504 277.25 250.283 276.407 253.487L282.21 255.013C283.033 251.884 284.358 247.162 286.19 240.834L280.427 239.166ZM276.463 253.301L272.963 263.801L278.655 265.699L282.155 255.199L276.463 253.301ZM276.026 267.742L303.526 265.742L303.091 259.758L275.591 261.758L276.026 267.742ZM306.253 263.325L308.253 253.075L302.364 251.925L300.364 262.175L306.253 263.325ZM308.242 253.129C308.762 250.7 309.357 247.207 310.026 242.69L304.091 241.81C303.427 246.293 302.855 249.634 302.375 251.871L308.242 253.129ZM310.008 242.796C310.846 238.274 311.519 234.322 312.025 230.945L306.092 230.055C305.598 233.345 304.938 237.226 304.109 241.704L310.008 242.796ZM312.021 230.974C312.669 226.923 313.515 224.278 314.4 222.762L309.217 219.738C307.769 222.222 306.781 225.744 306.096 230.026L312.021 230.974ZM314.305 222.914C314.778 222.205 315.13 221.97 315.28 221.899C315.368 221.857 315.48 221.816 315.769 221.894L317.348 216.106C315.803 215.684 314.207 215.768 312.712 216.476C311.279 217.155 310.173 218.295 309.312 219.586L314.305 222.914ZM315.664 221.863C320.603 223.407 324.687 225.77 327.987 228.92L332.13 224.58C328.097 220.73 323.181 217.927 317.453 216.137L315.664 221.863ZM327.937 228.871C328.709 229.643 329.559 231.653 329.559 236H335.559C335.559 231.347 334.741 227.19 332.18 224.629L327.937 228.871ZM329.559 236C329.559 238.428 329.254 241.316 328.612 244.689L334.506 245.811C335.197 242.184 335.559 238.906 335.559 236H329.559ZM328.622 244.634L325.372 260.134L331.245 261.366L334.495 245.866L328.622 244.634ZM328.64 263.732L335.39 262.982L334.727 257.018L327.977 257.768L328.64 263.732ZM335.431 262.977C336.568 262.835 338.495 262.75 341.309 262.75V256.75C338.456 256.75 336.216 256.832 334.686 257.023L335.431 262.977ZM341.309 262.75C342.848 262.75 344.074 262.791 345.007 262.865C345.994 262.944 346.467 263.049 346.61 263.096L348.507 257.404C347.65 257.118 346.581 256.972 345.485 256.885C344.335 256.793 342.936 256.75 341.309 256.75V262.75ZM346.97 263.192C348.297 263.457 349.302 263.896 350.065 264.441L353.552 259.559C351.982 258.437 350.154 257.71 348.147 257.308L346.97 263.192ZM350.467 264.683C351.542 265.221 351.897 265.645 351.986 265.793L357.131 262.707C356.22 261.188 354.742 260.112 353.15 259.317L350.467 264.683ZM351.559 264.25C351.559 263.803 351.684 263.502 351.731 263.403C351.781 263.296 351.809 263.274 351.753 263.346C351.702 263.411 351.608 263.52 351.453 263.676C351.3 263.829 351.103 264.011 350.856 264.222L354.761 268.778C355.416 268.216 356.022 267.63 356.489 267.029C356.873 266.536 357.559 265.546 357.559 264.25H351.559ZM351.065 264.059C350.126 264.729 349.468 264.974 349.065 265.041L350.052 270.959C351.65 270.693 353.158 269.937 354.552 268.941L351.065 264.059ZM348.649 265.141L343.149 266.891L344.968 272.609L350.468 270.859L348.649 265.141ZM343.331 266.84C341.256 267.358 338.281 268.21 334.435 269.38L336.182 275.12C340.003 273.957 342.862 273.142 344.786 272.66L343.331 266.84ZM334.551 269.347C330.754 270.338 327.302 271.159 324.191 271.814L325.427 277.686C328.649 277.007 332.196 276.162 336.066 275.153L334.551 269.347ZM321.879 274.104C319.379 285.435 317.465 294.01 316.134 299.832L321.983 301.168C323.319 295.324 325.238 286.731 327.738 275.396L321.879 274.104ZM319.285 303.491C330.283 302.658 338.433 302.076 343.746 301.744L343.371 295.756C338.017 296.09 329.834 296.675 318.832 297.509L319.285 303.491ZM343.559 301.75C347.733 301.75 350.592 302.242 352.377 303.007L354.74 297.493C351.859 296.258 348.051 295.75 343.559 295.75V301.75ZM352.377 303.007C353.097 303.316 353.716 303.775 354.254 304.421L358.863 300.579C357.735 299.225 356.353 298.184 354.74 297.493L352.377 303.007ZM354.254 304.421C354.839 305.123 355.214 305.838 355.424 306.574L361.193 304.926C360.737 303.329 359.944 301.877 358.863 300.579L354.254 304.421ZM302.492 282.092C303.009 281.058 303.309 279.935 303.309 278.75H297.309C297.309 278.898 297.275 279.109 297.125 279.408L302.492 282.092ZM299.927 275.774L270.677 279.524L271.44 285.476L300.69 281.726L299.927 275.774ZM268.137 281.818C266.978 286.784 265.486 292.756 263.656 299.74L269.461 301.26C271.298 294.244 272.805 288.216 273.98 283.182L268.137 281.818ZM263.668 299.697L262.418 304.197L268.199 305.803L269.449 301.303L263.668 299.697ZM265.681 307.977L287.681 305.227L286.936 299.273L264.936 302.023L265.681 307.977ZM287.394 305.249L296.144 304.999L295.973 299.001L287.223 299.251L287.394 305.249ZM299.013 302.521L302.763 281.271L296.854 280.229L293.104 301.479L299.013 302.521ZM410.449 214V211H407.449V214H410.449ZM532.949 214H535.949V211H532.949V214ZM532.949 223.25V226.25H535.949V223.25H532.949ZM419.699 223.25V220.25H416.699V223.25H419.699ZM419.699 293.75H416.699V296.75H419.699V293.75ZM518.199 293.75H521.199V290.75H518.199V293.75ZM518.199 303V306H521.199V303H518.199ZM419.699 303V300H416.699V303H419.699ZM419.699 378.75H416.699V381.75H419.699V378.75ZM532.949 378.75H535.949V375.75H532.949V378.75ZM532.949 388V391H535.949V388H532.949ZM410.449 388H407.449V391H410.449V388ZM410.449 217H532.949V211H410.449V217ZM529.949 214V223.25H535.949V214H529.949ZM532.949 220.25H419.699V226.25H532.949V220.25ZM416.699 223.25V293.75H422.699V223.25H416.699ZM419.699 296.75H518.199V290.75H419.699V296.75ZM515.199 293.75V303H521.199V293.75H515.199ZM518.199 300H419.699V306H518.199V300ZM416.699 303V378.75H422.699V303H416.699ZM419.699 381.75H532.949V375.75H419.699V381.75ZM529.949 378.75V388H535.949V378.75H529.949ZM532.949 385H410.449V391H532.949V385ZM413.449 388V214H407.449V388H413.449ZM659.258 304.75L659.853 301.81L659.846 301.808L659.258 304.75ZM624.508 295.5L623.403 298.289L623.434 298.302L623.466 298.313L624.508 295.5ZM603.508 281.5L601.203 283.421L601.232 283.455L601.262 283.489L603.508 281.5ZM603.508 233L601.055 231.272L601.042 231.291L601.029 231.31L603.508 233ZM625.008 216L623.826 213.243L623.817 213.246L623.808 213.25L625.008 216ZM689.258 217.5L687.88 220.165L687.907 220.179L687.934 220.192L689.258 217.5ZM712.508 238L715.033 236.38L715.033 236.38L712.508 238ZM721.008 268.25V271.25H724.008V268.25H721.008ZM711.758 268.25H708.758V271.25H711.758V268.25ZM704.508 242.25L707.03 240.625L707.03 240.625L704.508 242.25ZM684.758 225L683.416 227.683L683.438 227.694L683.46 227.705L684.758 225ZM631.758 223L630.737 220.179L630.737 220.179L631.758 223ZM612.508 236L610.23 234.048L610.214 234.067L610.198 234.086L612.508 236ZM612.258 277.25L610.1 279.334L610.118 279.353L610.136 279.371L612.258 277.25ZM630.508 288L629.559 290.846L629.559 290.846L630.508 288ZM662.008 296L661.392 298.936L661.399 298.938L662.008 296ZM693.758 304.25L692.753 307.077L692.79 307.09L692.828 307.102L693.758 304.25ZM713.008 317L710.735 318.958L710.75 318.975L710.766 318.993L713.008 317ZM712.258 369.75L709.89 367.908L709.884 367.916L712.258 369.75ZM689.508 386.25L690.588 389.049L690.588 389.049L689.508 386.25ZM622.008 384L620.683 386.692L622.008 384ZM597.758 362.25L595.162 363.753L595.177 363.78L595.193 363.807L597.758 362.25ZM589.508 329.75V326.75H586.508V329.75H589.508ZM598.758 329.75H601.758V326.75H598.758V329.75ZM605.758 357.75L603.166 359.262L603.178 359.282L603.19 359.301L605.758 357.75ZM626.508 376.5L625.166 379.183L625.186 379.193L625.206 379.203L626.508 376.5ZM696.508 372L694.753 369.567L694.743 369.574L694.734 369.581L696.508 372ZM705.258 322L703.059 324.041L703.059 324.041L705.258 322ZM688.758 312L687.809 314.846L687.852 314.86L687.896 314.873L688.758 312ZM659.846 301.808C645.765 298.992 634.348 295.946 625.55 292.687L623.466 298.313C632.667 301.721 644.417 304.841 658.669 307.692L659.846 301.808ZM625.613 292.711C617.123 289.347 610.547 284.923 605.754 279.511L601.262 283.489C606.802 289.744 614.226 294.653 623.403 298.289L625.613 292.711ZM605.812 279.579C601.345 274.219 599.008 267.274 599.008 258.5H593.008C593.008 268.392 595.67 276.781 601.203 283.421L605.812 279.579ZM599.008 258.5C599.008 249.38 601.357 241.481 605.986 234.69L601.029 231.31C595.659 239.186 593.008 248.287 593.008 258.5H599.008ZM605.96 234.728C610.775 227.894 617.485 222.556 626.208 218.75L623.808 213.25C614.198 217.444 606.574 223.44 601.055 231.272L605.96 234.728ZM626.19 218.757C635.083 214.946 645.418 213 657.258 213V207C644.764 207 633.599 209.054 623.826 213.243L626.19 218.757ZM657.258 213C668.48 213 678.669 215.401 687.88 220.165L690.636 214.835C680.513 209.599 669.369 207 657.258 207V213ZM687.934 220.192C697.3 224.796 704.625 231.268 709.983 239.62L715.033 236.38C709.058 227.066 700.883 219.871 690.581 214.808L687.934 220.192ZM709.983 239.62C715.314 247.931 718.008 257.443 718.008 268.25H724.008C724.008 256.39 721.035 245.736 715.033 236.38L709.983 239.62ZM721.008 265.25H711.758V271.25H721.008V265.25ZM714.758 268.25C714.758 257.901 712.207 248.658 707.03 240.625L701.986 243.875C706.476 250.842 708.758 258.932 708.758 268.25H714.758ZM707.03 240.625C701.885 232.642 694.87 226.526 686.056 222.295L683.46 227.705C691.312 231.474 697.464 236.858 701.986 243.875L707.03 240.625ZM686.099 222.317C677.313 217.923 667.597 215.75 657.008 215.75V221.75C666.752 221.75 675.536 223.743 683.416 227.683L686.099 222.317ZM657.008 215.75C647.688 215.75 638.923 217.218 630.737 220.179L632.778 225.821C640.259 223.115 648.328 221.75 657.008 221.75V215.75ZM630.737 220.179C622.459 223.173 615.595 227.788 610.23 234.048L614.786 237.952C619.42 232.545 625.39 228.494 632.778 225.821L630.737 220.179ZM610.198 234.086C604.846 240.544 602.258 248.59 602.258 258H608.258C608.258 249.744 610.503 243.122 614.818 237.914L610.198 234.086ZM602.258 258C602.258 266.619 604.792 273.837 610.1 279.334L614.416 275.166C610.39 270.997 608.258 265.381 608.258 258H602.258ZM610.136 279.371C615.191 284.426 621.704 288.228 629.559 290.846L631.456 285.154C624.312 282.772 618.658 279.407 614.379 275.129L610.136 279.371ZM629.559 290.846C637.219 293.399 647.849 296.094 661.392 298.936L662.624 293.064C649.167 290.24 638.796 287.601 631.456 285.154L629.559 290.846ZM661.399 298.938C675.015 301.76 685.443 304.478 692.753 307.077L694.763 301.423C687.072 298.689 676.334 295.906 662.617 293.062L661.399 298.938ZM692.828 307.102C699.983 309.436 705.932 313.381 710.735 318.958L715.281 315.042C709.75 308.619 702.865 304.064 694.688 301.398L692.828 307.102ZM710.766 318.993C715.462 324.277 718.008 331.892 718.008 342.25H724.008C724.008 330.942 721.22 321.723 715.25 315.007L710.766 318.993ZM718.008 342.25C718.008 352.514 715.257 361.007 709.89 367.908L714.626 371.592C720.925 363.493 724.008 353.652 724.008 342.25H718.008ZM709.884 367.916C704.585 374.773 697.469 379.962 688.428 383.451L690.588 389.049C700.547 385.205 708.597 379.393 714.632 371.584L709.884 367.916ZM688.428 383.451C679.304 386.973 669.341 388.75 658.508 388.75V394.75C670.008 394.75 680.712 392.861 690.588 389.049L688.428 383.451ZM658.508 388.75C645.051 388.75 633.352 386.238 623.332 381.308L620.683 386.692C631.664 392.095 644.298 394.75 658.508 394.75V388.75ZM623.332 381.308C613.307 376.375 605.671 369.502 600.322 360.693L595.193 363.807C601.178 373.664 609.709 381.292 620.683 386.692L623.332 381.308ZM600.354 360.747C595.146 351.752 592.508 341.447 592.508 329.75H586.508C586.508 342.386 589.369 353.748 595.162 363.753L600.354 360.747ZM589.508 332.75H598.758V326.75H589.508V332.75ZM595.758 329.75C595.758 340.866 598.194 350.737 603.166 359.262L608.349 356.238C603.989 348.763 601.758 339.967 601.758 329.75H595.758ZM603.19 359.301C608.339 367.824 615.699 374.45 625.166 379.183L627.849 373.817C619.316 369.55 612.843 363.676 608.326 356.199L603.19 359.301ZM625.206 379.203C634.696 383.772 645.827 386 658.508 386V380C646.522 380 636.319 377.894 627.809 373.797L625.206 379.203ZM658.508 386C674.326 386 687.656 382.211 698.282 374.419L694.734 369.581C685.359 376.455 673.356 380 658.508 380V386ZM698.263 374.433C709.221 366.529 714.758 355.619 714.758 342H708.758C708.758 353.715 704.128 362.804 694.753 369.567L698.263 374.433ZM714.758 342C714.758 332.853 712.467 325.354 707.456 319.959L703.059 324.041C706.716 327.979 708.758 333.813 708.758 342H714.758ZM707.456 319.959C702.726 314.865 696.749 311.265 689.62 309.127L687.896 314.873C694.1 316.735 699.123 319.802 703.059 324.041L707.456 319.959ZM689.706 309.154C683.028 306.928 673.049 304.482 659.853 301.81L658.662 307.69C671.8 310.351 681.488 312.739 687.809 314.846L689.706 309.154ZM844.316 304.75L844.912 301.81L844.905 301.808L844.316 304.75ZM809.566 295.5L808.461 298.289L808.493 298.302L808.524 298.313L809.566 295.5ZM788.566 281.5L786.262 283.421L786.291 283.455L786.321 283.489L788.566 281.5ZM788.566 233L786.114 231.272L786.101 231.291L786.088 231.31L788.566 233ZM810.066 216L808.885 213.243L808.876 213.246L808.867 213.25L810.066 216ZM874.316 217.5L872.938 220.165L872.965 220.179L872.993 220.192L874.316 217.5ZM897.566 238L900.092 236.38L900.092 236.38L897.566 238ZM906.066 268.25V271.25H909.066V268.25H906.066ZM896.816 268.25H893.816V271.25H896.816V268.25ZM889.566 242.25L892.088 240.625L892.088 240.625L889.566 242.25ZM869.816 225L868.475 227.683L868.496 227.694L868.518 227.705L869.816 225ZM816.816 223L815.796 220.179L815.796 220.179L816.816 223ZM797.566 236L795.289 234.048L795.272 234.067L795.256 234.086L797.566 236ZM797.316 277.25L795.158 279.334L795.176 279.353L795.195 279.371L797.316 277.25ZM815.566 288L814.618 290.846L814.618 290.846L815.566 288ZM847.066 296L846.45 298.936L846.457 298.938L847.066 296ZM878.816 304.25L877.811 307.077L877.849 307.09L877.886 307.102L878.816 304.25ZM898.066 317L895.793 318.958L895.809 318.975L895.824 318.993L898.066 317ZM897.316 369.75L894.948 367.908L894.943 367.916L897.316 369.75ZM874.566 386.25L875.647 389.049L875.647 389.049L874.566 386.25ZM807.066 384L805.742 386.692L807.066 384ZM782.816 362.25L780.22 363.753L780.236 363.78L780.252 363.807L782.816 362.25ZM774.566 329.75V326.75H771.566V329.75H774.566ZM783.816 329.75H786.816V326.75H783.816V329.75ZM790.816 357.75L788.225 359.262L788.237 359.282L788.249 359.301L790.816 357.75ZM811.566 376.5L810.225 379.183L810.245 379.193L810.265 379.203L811.566 376.5ZM881.566 372L879.811 369.567L879.802 369.574L879.792 369.581L881.566 372ZM890.316 322L888.118 324.041L888.118 324.041L890.316 322ZM873.816 312L872.868 314.846L872.911 314.86L872.954 314.873L873.816 312ZM844.905 301.808C830.824 298.992 819.407 295.946 810.608 292.687L808.524 298.313C817.726 301.721 829.476 304.841 843.728 307.692L844.905 301.808ZM810.672 292.711C802.181 289.347 795.606 284.923 790.812 279.511L786.321 283.489C791.861 289.744 799.285 294.653 808.461 298.289L810.672 292.711ZM790.871 279.579C786.404 274.219 784.066 267.274 784.066 258.5H778.066C778.066 268.392 780.729 276.781 786.262 283.421L790.871 279.579ZM784.066 258.5C784.066 249.38 786.415 241.481 791.045 234.69L786.088 231.31C780.718 239.186 778.066 248.287 778.066 258.5H784.066ZM791.019 234.728C795.834 227.894 802.543 222.556 811.266 218.75L808.867 213.25C799.256 217.444 791.632 223.44 786.114 231.272L791.019 234.728ZM811.248 218.757C820.142 214.946 830.477 213 842.316 213V207C829.822 207 818.658 209.054 808.885 213.243L811.248 218.757ZM842.316 213C853.539 213 863.728 215.401 872.938 220.165L875.695 214.835C865.572 209.599 854.427 207 842.316 207V213ZM872.993 220.192C882.358 224.796 889.683 231.268 895.041 239.62L900.092 236.38C894.116 227.066 885.941 219.871 875.64 214.808L872.993 220.192ZM895.041 239.62C900.373 247.931 903.066 257.443 903.066 268.25H909.066C909.066 256.39 906.093 245.736 900.092 236.38L895.041 239.62ZM906.066 265.25H896.816V271.25H906.066V265.25ZM899.816 268.25C899.816 257.901 897.265 248.658 892.088 240.625L887.045 243.875C891.534 250.842 893.816 258.932 893.816 268.25H899.816ZM892.088 240.625C886.943 232.642 879.929 226.526 871.115 222.295L868.518 227.705C876.371 231.474 882.523 236.858 887.045 243.875L892.088 240.625ZM871.158 222.317C862.371 217.923 852.656 215.75 842.066 215.75V221.75C851.811 221.75 860.595 223.743 868.475 227.683L871.158 222.317ZM842.066 215.75C832.747 215.75 823.982 217.218 815.796 220.179L817.837 225.821C825.318 223.115 833.386 221.75 842.066 221.75V215.75ZM815.796 220.179C807.518 223.173 800.654 227.788 795.289 234.048L799.844 237.952C804.479 232.545 810.448 228.494 817.837 225.821L815.796 220.179ZM795.256 234.086C789.905 240.544 787.316 248.59 787.316 258H793.316C793.316 249.744 795.561 243.122 799.876 237.914L795.256 234.086ZM787.316 258C787.316 266.619 789.851 273.837 795.158 279.334L799.475 275.166C795.449 270.997 793.316 265.381 793.316 258H787.316ZM795.195 279.371C800.25 284.426 806.762 288.228 814.618 290.846L816.515 285.154C809.37 282.772 803.716 279.407 799.438 275.129L795.195 279.371ZM814.618 290.846C822.278 293.399 832.907 296.094 846.45 298.936L847.683 293.064C834.226 290.24 823.855 287.601 816.515 285.154L814.618 290.846ZM846.457 298.938C860.074 301.76 870.502 304.478 877.811 307.077L879.821 301.423C872.131 298.689 861.393 295.906 847.675 293.062L846.457 298.938ZM877.886 307.102C885.042 309.436 890.991 313.381 895.793 318.958L900.34 315.042C894.809 308.619 887.924 304.064 879.746 301.398L877.886 307.102ZM895.824 318.993C900.521 324.277 903.066 331.892 903.066 342.25H909.066C909.066 330.942 906.279 321.723 900.309 315.007L895.824 318.993ZM903.066 342.25C903.066 352.514 900.316 361.007 894.948 367.908L899.684 371.592C905.984 363.493 909.066 353.652 909.066 342.25H903.066ZM894.943 367.916C889.644 374.773 882.527 379.962 873.486 383.451L875.647 389.049C885.606 385.205 893.656 379.393 899.69 371.584L894.943 367.916ZM873.486 383.451C864.363 386.973 854.399 388.75 843.566 388.75V394.75C855.067 394.75 865.77 392.861 875.647 389.049L873.486 383.451ZM843.566 388.75C830.109 388.75 818.41 386.238 808.391 381.308L805.742 386.692C816.723 392.095 829.357 394.75 843.566 394.75V388.75ZM808.391 381.308C798.365 376.375 790.729 369.502 785.381 360.693L780.252 363.807C786.237 373.664 794.767 381.292 805.742 386.692L808.391 381.308ZM785.413 360.747C780.205 351.752 777.566 341.447 777.566 329.75H771.566C771.566 342.386 774.428 353.748 780.22 363.753L785.413 360.747ZM774.566 332.75H783.816V326.75H774.566V332.75ZM780.816 329.75C780.816 340.866 783.252 350.737 788.225 359.262L793.408 356.238C789.047 348.763 786.816 339.967 786.816 329.75H780.816ZM788.249 359.301C793.398 367.824 800.758 374.45 810.225 379.183L812.908 373.817C804.375 369.55 797.901 363.676 793.384 356.199L788.249 359.301ZM810.265 379.203C819.755 383.772 830.886 386 843.566 386V380C831.58 380 821.378 377.894 812.868 373.797L810.265 379.203ZM843.566 386C859.385 386 872.715 382.211 883.341 374.419L879.792 369.581C870.418 376.455 858.415 380 843.566 380V386ZM883.321 374.433C894.28 366.529 899.816 355.619 899.816 342H893.816C893.816 353.715 889.187 362.804 879.811 369.567L883.321 374.433ZM899.816 342C899.816 332.853 897.525 325.354 892.515 319.959L888.118 324.041C891.774 327.979 893.816 333.813 893.816 342H899.816ZM892.515 319.959C887.785 314.865 881.808 311.265 874.678 309.127L872.954 314.873C879.158 316.735 884.181 319.802 888.118 324.041L892.515 319.959ZM874.765 309.154C868.086 306.928 858.108 304.482 844.912 301.81L843.721 307.69C856.858 310.351 866.546 312.739 872.868 314.846L874.765 309.154ZM957.625 388H954.625V391H957.625V388ZM957.625 214V211H954.625V214H957.625ZM967.375 214L969.465 211.848L968.592 211H967.375V214ZM1088.88 332L1086.78 334.152L1091.88 339.096V332H1088.88ZM1088.88 214V211H1085.88V214H1088.88ZM1098.13 214H1101.13V211H1098.13V214ZM1098.13 388V391H1101.13V388H1098.13ZM1088.88 388H1085.88V391H1088.88V388ZM1088.88 345H1091.88V343.735L1090.97 342.852L1088.88 345ZM966.875 226L968.97 223.852L963.875 218.883V226H966.875ZM966.875 388V391H969.875V388H966.875ZM960.625 388V214H954.625V388H960.625ZM957.625 217H967.375V211H957.625V217ZM965.285 216.152L1086.78 334.152L1090.97 329.848L969.465 211.848L965.285 216.152ZM1091.88 332V214H1085.88V332H1091.88ZM1088.88 217H1098.13V211H1088.88V217ZM1095.13 214V388H1101.13V214H1095.13ZM1098.13 385H1088.88V391H1098.13V385ZM1091.88 388V345H1085.88V388H1091.88ZM1090.97 342.852L968.97 223.852L964.78 228.148L1086.78 347.148L1090.97 342.852ZM963.875 226V388H969.875V226H963.875ZM966.875 385H957.625V391H966.875V385ZM1246.68 220L1245.16 222.583L1245.17 222.591L1245.19 222.6L1246.68 220ZM1272.68 246L1270.08 247.497L1270.09 247.512L1270.1 247.526L1272.68 246ZM1272.68 356L1270.1 354.474L1270.09 354.488L1270.08 354.503L1272.68 356ZM1246.68 382.25L1248.18 384.85L1248.2 384.841L1248.21 384.833L1246.68 382.25ZM1174.68 382.25L1173.16 384.833L1173.17 384.841L1173.19 384.85L1174.68 382.25ZM1148.43 356L1145.83 357.497L1145.84 357.512L1145.85 357.526L1148.43 356ZM1148.43 246L1145.85 244.474L1145.84 244.488L1145.83 244.503L1148.43 246ZM1174.68 220L1176.18 222.6L1176.2 222.591L1176.21 222.583L1174.68 220ZM1156.43 351.5L1153.83 352.984L1153.84 353.01L1153.86 353.037L1156.43 351.5ZM1179.18 374.25L1177.65 376.826L1177.67 376.842L1177.7 376.857L1179.18 374.25ZM1241.93 374.25L1243.44 376.846L1243.44 376.842L1243.45 376.838L1241.93 374.25ZM1264.68 351.5L1262.1 349.983L1262.09 349.99L1262.09 349.997L1264.68 351.5ZM1264.68 250.75L1262.08 252.234L1262.09 252.26L1262.11 252.287L1264.68 250.75ZM1241.93 228L1240.4 230.576L1240.42 230.592L1240.45 230.607L1241.93 228ZM1179.18 228L1180.69 230.596L1180.69 230.592L1180.7 230.588L1179.18 228ZM1156.43 250.75L1153.85 249.233L1153.84 249.24L1153.84 249.247L1156.43 250.75ZM1210.68 213.25C1223.16 213.25 1234.63 216.361 1245.16 222.583L1248.21 217.417C1236.74 210.639 1224.21 207.25 1210.68 207.25V213.25ZM1245.19 222.6C1255.73 228.669 1264.01 236.955 1270.08 247.497L1275.28 244.503C1268.69 233.045 1259.64 223.997 1248.18 217.4L1245.19 222.6ZM1270.1 247.526C1276.32 258.056 1279.43 269.527 1279.43 282H1285.43C1285.43 268.473 1282.04 255.944 1275.27 244.474L1270.1 247.526ZM1279.43 282V320H1285.43V282H1279.43ZM1279.43 320C1279.43 332.473 1276.32 343.944 1270.1 354.474L1275.27 357.526C1282.04 346.056 1285.43 333.527 1285.43 320H1279.43ZM1270.08 354.503C1264.01 365.051 1255.71 373.429 1245.16 379.667L1248.21 384.833C1259.65 378.071 1268.69 368.949 1275.28 357.497L1270.08 354.503ZM1245.19 379.65C1234.65 385.715 1223.17 388.75 1210.68 388.75V394.75C1224.2 394.75 1236.71 391.452 1248.18 384.85L1245.19 379.65ZM1210.68 388.75C1198.2 388.75 1186.71 385.715 1176.18 379.65L1173.19 384.85C1184.65 391.452 1197.17 394.75 1210.68 394.75V388.75ZM1176.21 379.667C1165.65 373.425 1157.26 365.038 1151.02 354.474L1145.85 357.526C1152.61 368.962 1161.72 378.075 1173.16 384.833L1176.21 379.667ZM1151.03 354.503C1144.97 343.97 1141.93 332.488 1141.93 320H1135.93C1135.93 333.512 1139.23 346.03 1145.83 357.497L1151.03 354.503ZM1141.93 320V282H1135.93V320H1141.93ZM1141.93 282C1141.93 269.512 1144.97 258.03 1151.03 247.497L1145.83 244.503C1139.23 255.97 1135.93 268.488 1135.93 282H1141.93ZM1151.02 247.526C1157.25 236.969 1165.63 228.673 1176.18 222.6L1173.19 217.4C1161.74 223.993 1152.61 233.031 1145.85 244.474L1151.02 247.526ZM1176.21 222.583C1186.74 216.361 1198.21 213.25 1210.68 213.25V207.25C1197.16 207.25 1184.63 210.639 1173.16 217.417L1176.21 222.583ZM1145.18 320C1145.18 331.843 1148.06 342.856 1153.83 352.984L1159.04 350.016C1153.8 340.811 1151.18 330.824 1151.18 320H1145.18ZM1153.86 353.037C1159.78 362.964 1167.72 370.905 1177.65 376.826L1180.72 371.674C1171.65 366.262 1164.42 359.036 1159.01 349.963L1153.86 353.037ZM1177.7 376.857C1187.83 382.62 1198.84 385.5 1210.68 385.5V379.5C1199.86 379.5 1189.87 376.88 1180.67 371.643L1177.7 376.857ZM1210.68 385.5C1222.53 385.5 1233.46 382.62 1243.44 376.846L1240.43 371.654C1231.4 376.88 1221.51 379.5 1210.68 379.5V385.5ZM1243.45 376.838C1253.56 370.915 1261.51 362.962 1267.28 353.003L1262.09 349.997C1256.85 359.038 1249.65 366.252 1240.42 371.662L1243.45 376.838ZM1267.27 353.017C1273.21 342.885 1276.18 331.86 1276.18 320H1270.18C1270.18 330.806 1267.49 340.782 1262.1 349.983L1267.27 353.017ZM1276.18 320V282H1270.18V320H1276.18ZM1276.18 282C1276.18 270.14 1273.21 259.19 1267.26 249.213L1262.11 252.287C1267.49 261.31 1270.18 271.194 1270.18 282H1276.18ZM1267.29 249.266C1261.52 239.131 1253.55 231.159 1243.42 225.392L1240.45 230.607C1249.65 235.841 1256.84 243.036 1262.08 252.234L1267.29 249.266ZM1243.47 225.424C1233.49 219.473 1222.54 216.5 1210.68 216.5V222.5C1221.49 222.5 1231.37 225.194 1240.4 230.576L1243.47 225.424ZM1210.68 216.5C1198.82 216.5 1187.8 219.472 1177.67 225.412L1180.7 230.588C1189.9 225.194 1199.88 222.5 1210.68 222.5V216.5ZM1177.68 225.404C1167.72 231.169 1159.77 239.128 1153.85 249.233L1159.02 252.267C1164.43 243.038 1171.65 235.831 1180.69 230.596L1177.68 225.404ZM1153.84 249.247C1148.06 259.219 1145.18 270.157 1145.18 282H1151.18C1151.18 271.177 1153.8 261.281 1159.03 252.253L1153.84 249.247ZM1145.18 282V320H1151.18V282H1145.18ZM1328.99 214L1331.77 212.859L1331 211H1328.99V214ZM1395.49 375.75L1392.72 376.891L1395.49 383.64L1398.27 376.891L1395.49 375.75ZM1461.99 214V211H1459.98L1459.22 212.859L1461.99 214ZM1471.74 214L1474.52 215.14L1476.22 211H1471.74V214ZM1400.24 388V391H1402.25L1403.02 389.14L1400.24 388ZM1390.49 388L1387.72 389.14L1388.48 391H1390.49V388ZM1318.99 214V211H1314.52L1316.22 215.14L1318.99 214ZM1326.22 215.141L1392.72 376.891L1398.27 374.609L1331.77 212.859L1326.22 215.141ZM1398.27 376.891L1464.77 215.141L1459.22 212.859L1392.72 374.609L1398.27 376.891ZM1461.99 217H1471.74V211H1461.99V217ZM1468.97 212.86L1397.47 386.86L1403.02 389.14L1474.52 215.14L1468.97 212.86ZM1400.24 385H1390.49V391H1400.24V385ZM1393.27 386.86L1321.77 212.86L1316.22 215.14L1387.72 389.14L1393.27 386.86ZM1318.99 217H1328.99V211H1318.99V217ZM1520.8 214V211H1517.8V214H1520.8ZM1643.3 214H1646.3V211H1643.3V214ZM1643.3 223.25V226.25H1646.3V223.25H1643.3ZM1530.05 223.25V220.25H1527.05V223.25H1530.05ZM1530.05 293.75H1527.05V296.75H1530.05V293.75ZM1628.55 293.75H1631.55V290.75H1628.55V293.75ZM1628.55 303V306H1631.55V303H1628.55ZM1530.05 303V300H1527.05V303H1530.05ZM1530.05 378.75H1527.05V381.75H1530.05V378.75ZM1643.3 378.75H1646.3V375.75H1643.3V378.75ZM1643.3 388V391H1646.3V388H1643.3ZM1520.8 388H1517.8V391H1520.8V388ZM1520.8 217H1643.3V211H1520.8V217ZM1640.3 214V223.25H1646.3V214H1640.3ZM1643.3 220.25H1530.05V226.25H1643.3V220.25ZM1527.05 223.25V293.75H1533.05V223.25H1527.05ZM1530.05 296.75H1628.55V290.75H1530.05V296.75ZM1625.55 293.75V303H1631.55V293.75H1625.55ZM1628.55 300H1530.05V306H1628.55V300ZM1527.05 303V378.75H1533.05V303H1527.05ZM1530.05 381.75H1643.3V375.75H1530.05V381.75ZM1640.3 378.75V388H1646.3V378.75H1640.3ZM1643.3 385H1520.8V391H1643.3V385ZM1523.8 388V214H1517.8V388H1523.8ZM1803.61 219.75L1804.88 217.031L1804.87 217.026L1803.61 219.75ZM1827.11 240.5L1824.56 242.077L1824.57 242.094L1824.58 242.111L1827.11 240.5ZM1823.86 306L1821.49 304.163L1821.48 304.169L1823.86 306ZM1793.61 326.25L1792.83 323.354L1788.65 324.482L1791.17 327.997L1793.61 326.25ZM1837.86 388V391H1843.7L1840.3 386.253L1837.86 388ZM1826.86 388L1824.42 389.741L1825.31 391H1826.86V388ZM1784.11 328L1786.55 326.259L1785.62 324.951L1784.02 325.001L1784.11 328ZM1776.11 328.25V331.25H1776.16L1776.2 331.249L1776.11 328.25ZM1713.36 328.25V325.25H1710.36V328.25H1713.36ZM1713.36 388V391H1716.36V388H1713.36ZM1704.11 388H1701.11V391H1704.11V388ZM1704.11 214V211H1701.11V214H1704.11ZM1789.11 215.5L1788.54 218.445L1788.59 218.456L1788.65 218.464L1789.11 215.5ZM1802.61 312.5L1801.08 309.917L1801.08 309.917L1802.61 312.5ZM1820.11 295L1817.53 293.474L1817.53 293.474L1820.11 295ZM1818.86 244.75L1816.33 246.364L1816.34 246.383L1816.36 246.402L1818.86 244.75ZM1797.86 227.25L1799.03 224.49L1799.02 224.482L1799 224.474L1797.86 227.25ZM1713.36 223.25V220.25H1710.36V223.25H1713.36ZM1713.36 319H1710.36V322H1713.36V319ZM1802.34 222.469C1811.82 226.894 1819.21 233.421 1824.56 242.077L1829.66 238.923C1823.68 229.246 1815.39 221.939 1804.88 217.031L1802.34 222.469ZM1824.58 242.111C1830.1 250.782 1832.86 260.387 1832.86 271H1838.86C1838.86 259.279 1835.79 248.551 1829.64 238.889L1824.58 242.111ZM1832.86 271C1832.86 283.331 1829.08 294.353 1821.49 304.163L1826.23 307.837C1834.64 296.98 1838.86 284.669 1838.86 271H1832.86ZM1821.48 304.169C1814.05 313.818 1804.52 320.193 1792.83 323.354L1794.39 329.146C1807.36 325.641 1818 318.515 1826.24 307.831L1821.48 304.169ZM1791.17 327.997L1835.42 389.747L1840.3 386.253L1796.05 324.503L1791.17 327.997ZM1837.86 385H1826.86V391H1837.86V385ZM1829.3 386.259L1786.55 326.259L1781.67 329.741L1824.42 389.741L1829.3 386.259ZM1784.02 325.001L1776.02 325.251L1776.2 331.249L1784.2 330.999L1784.02 325.001ZM1776.11 325.25H1713.36V331.25H1776.11V325.25ZM1710.36 328.25V388H1716.36V328.25H1710.36ZM1713.36 385H1704.11V391H1713.36V385ZM1707.11 388V214H1701.11V388H1707.11ZM1704.11 217H1770.36V211H1704.11V217ZM1770.36 217C1777.57 217 1783.62 217.493 1788.54 218.445L1789.68 212.555C1784.27 211.507 1777.82 211 1770.36 211V217ZM1788.65 218.464C1793.74 219.26 1798.3 220.604 1802.35 222.474L1804.87 217.026C1800.25 214.896 1795.15 213.407 1789.57 212.536L1788.65 218.464ZM1778.61 322C1787.8 322 1796.33 319.694 1804.14 315.083L1801.08 309.917C1794.22 313.972 1786.75 316 1778.61 316V322ZM1804.14 315.083C1811.9 310.492 1818.1 304.295 1822.69 296.526L1817.53 293.474C1813.45 300.371 1807.98 305.841 1801.08 309.917L1804.14 315.083ZM1822.69 296.526C1827.3 288.722 1829.61 280.194 1829.61 271H1823.61C1823.61 279.14 1821.58 286.611 1817.53 293.474L1822.69 296.526ZM1829.61 271C1829.61 260.765 1826.86 251.437 1821.36 243.098L1816.36 246.402C1821.19 253.729 1823.61 261.902 1823.61 271H1829.61ZM1821.39 243.136C1816.05 234.765 1808.56 228.547 1799.03 224.49L1796.68 230.01C1805.16 233.62 1811.67 239.068 1816.33 246.364L1821.39 243.136ZM1799 224.474C1791.97 221.592 1782.35 220.25 1770.36 220.25V226.25C1782.03 226.25 1790.75 227.575 1796.72 230.026L1799 224.474ZM1770.36 220.25H1713.36V226.25H1770.36V220.25ZM1710.36 223.25V319H1716.36V223.25H1710.36ZM1713.36 322H1778.61V316H1713.36V322ZM2021.17 214H2024.17V211H2021.17V214ZM2021.17 223.25V226.25H2024.17V223.25H2021.17ZM1955.42 223.25V220.25H1952.42V223.25H1955.42ZM1955.42 388V391H1958.42V388H1955.42ZM1946.42 388H1943.42V391H1946.42V388ZM1946.42 223.25H1949.42V220.25H1946.42V223.25ZM1880.67 223.25H1877.67V226.25H1880.67V223.25ZM1880.67 214V211H1877.67V214H1880.67ZM2018.17 214V223.25H2024.17V214H2018.17ZM2021.17 220.25H1955.42V226.25H2021.17V220.25ZM1952.42 223.25V388H1958.42V223.25H1952.42ZM1955.42 385H1946.42V391H1955.42V385ZM1949.42 388V223.25H1943.42V388H1949.42ZM1946.42 220.25H1880.67V226.25H1946.42V220.25ZM1883.67 223.25V214H1877.67V223.25H1883.67ZM1880.67 217H2021.17V211H1880.67V217Z" fill="black"/>
<defs>
<linearGradient id="paint0_linear_2_29" x1="1011.61" y1="57" x2="1011.61" y2="544" gradientUnits="userSpaceOnUse">
<stop stop-color="#AF2DFF"/>
<stop offset="1" stop-color="#380080"/>
</linearGradient>
</defs>
</svg>
